<svg width="18" height="18" viewBox="0 0 18 18" fill="none" xmlns="http://www.w3.org/2000/svg">
<path d="M16.3125 2.8125H1.6875C1.53832 2.8125 1.39524 2.87176 1.28975 2.97725C1.18426 3.08274 1.125 3.22582 1.125 3.375V14.625C1.125 14.7742 1.18426 14.9173 1.28975 15.0227C1.39524 15.1282 1.53832 15.1875 1.6875 15.1875H16.3125C16.4617 15.1875 16.6048 15.1282 16.7102 15.0227C16.8157 14.9173 16.875 14.7742 16.875 14.625V3.375C16.875 3.22582 16.8157 3.08274 16.7102 2.97725C16.6048 2.87176 16.4617 2.8125 16.3125 2.8125ZM9.34523 10.0065C9.24652 10.0833 9.12504 10.1249 9 10.1249C8.87496 10.1249 8.75348 10.0833 8.65477 10.0065L3.14824 5.72379L3.83871 4.83574L9 8.84988L14.1613 4.83574L14.8518 5.72379L9.34523 10.0065Z" fill="#061B6B"/>
</svg>
