<svg width="34" height="34" viewBox="0 0 34 34" fill="none" xmlns="http://www.w3.org/2000/svg">
<path d="M30.0151 5.1748H3.10507C2.83057 5.1748 2.56731 5.28385 2.37321 5.47795C2.17911 5.67205 2.07007 5.93531 2.07007 6.2098V26.9098C2.07007 27.1843 2.17911 27.4476 2.37321 27.6417C2.56731 27.8358 2.83057 27.9448 3.10507 27.9448H30.0151C30.2896 27.9448 30.5528 27.8358 30.7469 27.6417C30.941 27.4476 31.0501 27.1843 31.0501 26.9098V6.2098C31.0501 5.93531 30.941 5.67205 30.7469 5.47795C30.5528 5.28385 30.2896 5.1748 30.0151 5.1748ZM17.1953 18.4118C17.0137 18.553 16.7901 18.6297 16.5601 18.6297C16.33 18.6297 16.1065 18.553 15.9248 18.4118L5.79283 10.5316L7.0633 8.89757L16.5601 16.2836L26.0568 8.89757L27.3273 10.5316L17.1953 18.4118Z" fill="#0A237F"/>
</svg>
