<svg width="18" height="18" viewBox="0 0 18 18" fill="none" xmlns="http://www.w3.org/2000/svg">
<path d="M13.7465 16.8749C13.0603 16.8749 12.0963 16.6267 10.6528 15.8202C8.89745 14.8358 7.53971 13.927 5.79385 12.1858C4.11057 10.5036 3.29143 9.41444 2.14499 7.32829C0.849829 4.97285 1.07061 3.73818 1.31741 3.21049C1.61131 2.57979 2.04514 2.20257 2.60588 1.82816C2.92438 1.61948 3.26143 1.44061 3.61276 1.29379C3.64791 1.27867 3.68061 1.26426 3.70979 1.25125C3.88381 1.17285 4.14749 1.05438 4.48147 1.18094C4.70436 1.26461 4.90334 1.43582 5.21483 1.74343C5.85362 2.37343 6.72655 3.7765 7.04858 4.46555C7.26479 4.92996 7.40788 5.23652 7.40823 5.58034C7.40823 5.98288 7.20573 6.2933 6.95999 6.62834C6.91393 6.69127 6.86823 6.75139 6.82393 6.80974C6.55639 7.1613 6.49768 7.2629 6.53635 7.44431C6.61475 7.80887 7.1994 8.89414 8.16022 9.85284C9.12104 10.8115 10.175 11.3593 10.541 11.4373C10.7301 11.4777 10.8339 11.4166 11.1967 11.1395C11.2487 11.0998 11.3021 11.0587 11.358 11.0176C11.7328 10.7388 12.0288 10.5415 12.4219 10.5415H12.424C12.766 10.5415 13.0589 10.6899 13.544 10.9346C14.1769 11.2538 15.6221 12.1155 16.256 12.755C16.5643 13.0657 16.7362 13.264 16.8203 13.4865C16.9468 13.8216 16.8276 14.0842 16.7499 14.26C16.7369 14.2892 16.7225 14.3211 16.7074 14.3567C16.5594 14.7074 16.3795 15.0437 16.1699 15.3614C15.7962 15.9204 15.4175 16.3532 14.7854 16.6474C14.4608 16.8009 14.1056 16.8787 13.7465 16.8749Z" fill="#061B6B"/>
</svg>
