<svg width="34" height="34" viewBox="0 0 34 34" fill="none" xmlns="http://www.w3.org/2000/svg">
<path d="M25.2929 31.0502C24.0302 31.0502 22.2564 30.5935 19.6004 29.1096C16.3705 27.2983 13.8723 25.6262 10.6599 22.4222C7.56268 19.3269 6.05546 17.3229 3.946 13.4843C1.56291 9.15025 1.96915 6.87842 2.42326 5.90746C2.96404 4.74697 3.76229 4.05287 4.79405 3.36395C5.38009 2.97999 6.00026 2.65085 6.6467 2.3807C6.71139 2.35288 6.77155 2.32636 6.82524 2.30243C7.14544 2.15818 7.6306 1.94018 8.24513 2.17305C8.65525 2.32701 9.02138 2.64204 9.59451 3.20805C10.7699 4.36725 12.3761 6.94893 12.9686 8.21681C13.3664 9.07133 13.6297 9.6354 13.6304 10.268C13.6304 11.0087 13.2578 11.5799 12.8056 12.1964C12.7209 12.3122 12.6368 12.4228 12.5553 12.5302C12.063 13.177 11.955 13.364 12.0261 13.6978C12.1704 14.3686 13.2461 16.3655 15.014 18.1295C16.7819 19.8935 18.7213 20.9014 19.3947 21.045C19.7427 21.1194 19.9335 21.0068 20.6011 20.4971C20.6968 20.424 20.7952 20.3483 20.898 20.2726C21.5876 19.7596 22.1322 19.3967 22.8555 19.3967H22.8593C23.4887 19.3967 24.0276 19.6697 24.9203 20.12C26.0847 20.7073 28.744 22.2928 29.9103 23.4695C30.4776 24.0413 30.7939 24.4061 30.9485 24.8156C31.1814 25.4321 30.9621 25.9153 30.8191 26.2387C30.7952 26.2924 30.7687 26.3513 30.7409 26.4166C30.4686 27.0619 30.1375 27.6808 29.7518 28.2654C29.0642 29.2939 28.3675 30.0902 27.2044 30.6317C26.6071 30.9142 25.9535 31.0573 25.2929 31.0502Z" fill="#0A237F"/>
</svg>
